<svg width="56" height="55" viewBox="0 0 56 55" fill="none" xmlns="http://www.w3.org/2000/svg">
  <path d="M28 8C24.1433 8 20.3731 9.14366 17.1664 11.2863C13.9596 13.429 11.4603 16.4745 9.98436 20.0377C8.50845 23.6008 8.12228 27.5216 8.8747 31.3043C9.62711 35.0869 11.4843 38.5615 14.2114 41.2886C16.9386 44.0157 20.4131 45.8729 24.1957 46.6253C27.9784 47.3777 31.8992 46.9916 35.4623 45.5156C39.0255 44.0397 42.071 41.5404 44.2137 38.3336C46.3564 35.1269 47.5 31.3567 47.5 27.5C47.4945 22.33 45.4383 17.3732 41.7826 13.7174C38.1268 10.0617 33.1701 8.00546 28 8ZM28 44C24.7366 44 21.5465 43.0323 18.8331 41.2192C16.1197 39.4062 14.0048 36.8293 12.756 33.8143C11.5072 30.7993 11.1804 27.4817 11.8171 24.281C12.4537 21.0803 14.0252 18.1403 16.3327 15.8327C18.6403 13.5252 21.5803 11.9537 24.781 11.317C27.9817 10.6804 31.2993 11.0071 34.3143 12.256C37.3293 13.5048 39.9062 15.6197 41.7193 18.3331C43.5323 21.0465 44.5 24.2366 44.5 27.5C44.495 31.8745 42.7551 36.0685 39.6618 39.1618C36.5685 42.2551 32.3746 43.995 28 44ZM26.5 29V18.5C26.5 18.1022 26.658 17.7206 26.9393 17.4393C27.2207 17.158 27.6022 17 28 17C28.3978 17 28.7794 17.158 29.0607 17.4393C29.342 17.7206 29.5 18.1022 29.5 18.5V29C29.5 29.3978 29.342 29.7794 29.0607 30.0607C28.7794 30.342 28.3978 30.5 28 30.5C27.6022 30.5 27.2207 30.342 26.9393 30.0607C26.658 29.7794 26.5 29.3978 26.5 29ZM30.25 35.75C30.25 36.195 30.118 36.63 29.8708 37C29.6236 37.37 29.2722 37.6584 28.861 37.8287C28.4499 37.999 27.9975 38.0436 27.5611 37.9568C27.1246 37.87 26.7237 37.6557 26.409 37.341C26.0944 37.0263 25.8801 36.6254 25.7932 36.189C25.7064 35.7525 25.751 35.3001 25.9213 34.889C26.0916 34.4778 26.38 34.1264 26.75 33.8792C27.12 33.632 27.555 33.5 28 33.5C28.5967 33.5 29.169 33.7371 29.591 34.159C30.013 34.581 30.25 35.1533 30.25 35.75Z" fill="#F2536D"/>
</svg>