<svg width="25" height="24" viewBox="0 0 25 24" fill="none" xmlns="http://www.w3.org/2000/svg">
  <path d="M20.781 9.28104L13.281 16.781C13.2114 16.8508 13.1287 16.9061 13.0376 16.9438C12.9466 16.9816 12.849 17.001 12.7504 17.001C12.6519 17.001 12.5543 16.9816 12.4632 16.9438C12.3722 16.9061 12.2894 16.8508 12.2198 16.781L4.71979 9.28104C4.57906 9.14031 4.5 8.94944 4.5 8.75042C4.5 8.55139 4.57906 8.36052 4.71979 8.21979C4.86052 8.07906 5.05139 8 5.25042 8C5.44944 8 5.64031 8.07906 5.78104 8.21979L12.7504 15.1901L19.7198 8.21979C19.7895 8.15011 19.8722 8.09483 19.9632 8.05712C20.0543 8.01941 20.1519 8 20.2504 8C20.349 8 20.4465 8.01941 20.5376 8.05712C20.6286 8.09483 20.7114 8.15011 20.781 8.21979C20.8507 8.28947 20.906 8.3722 20.9437 8.46324C20.9814 8.55429 21.0008 8.65187 21.0008 8.75042C21.0008 8.84896 20.9814 8.94654 20.9437 9.03759C20.906 9.12863 20.8507 9.21136 20.781 9.28104Z" fill="#242B35"/>
</svg>